<?xml version="1.0" encoding="UTF-8" standalone="no"?>
<!-- Created with Inkscape (http://www.inkscape.org/) -->

<svg
   width="79.838188mm"
   height="77.9543mm"
   id="svg2"
   version="1.1"
   inkscape:version="1.1.1 (c3084ef, 2021-09-22)"
   sodipodi:docname="background.svg"
   viewBox="0 0 301.75063 294.63042"
   xmlns:inkscape="http://www.inkscape.org/namespaces/inkscape"
   xmlns:sodipodi="http://sodipodi.sourceforge.net/DTD/sodipodi-0.dtd"
   xmlns="http://www.w3.org/2000/svg"
   xmlns:svg="http://www.w3.org/2000/svg"
   xmlns:rdf="http://www.w3.org/1999/02/22-rdf-syntax-ns#"
   xmlns:cc="http://creativecommons.org/ns#"
   xmlns:dc="http://purl.org/dc/elements/1.1/">
  <sodipodi:namedview
     id="base"
     pagecolor="#ffffff"
     bordercolor="#666666"
     borderopacity="1.0"
     inkscape:pageopacity="0.0"
     inkscape:pageshadow="2"
     inkscape:zoom="0.98994949"
     inkscape:cx="47.47717"
     inkscape:cy="124.75384"
     inkscape:document-units="mm"
     inkscape:current-layer="layer3"
     showgrid="true"
     inkscape:window-width="1324"
     inkscape:window-height="847"
     inkscape:window-x="0"
     inkscape:window-y="25"
     inkscape:window-maximized="0"
     inkscape:snap-grids="true"
     inkscape:snap-page="true"
     units="mm"
     showguides="false"
     inkscape:guide-bbox="true"
     inkscape:snap-global="false"
     inkscape:pagecheckerboard="true"
     inkscape:snap-nodes="true"
     inkscape:snap-others="false"
     inkscape:snap-intersection-paths="true"
     inkscape:object-nodes="false">
    <inkscape:grid
       originx="-127.90538"
       type="xygrid"
       id="grid4328"
       empspacing="5"
       visible="true"
       enabled="false"
       snapvisiblegridlinesonly="true"
       units="mm"
       spacingx="3.7795276"
       spacingy="3.7795276"
       originy="877.524" />
    <sodipodi:guide
       inkscape:locked="false"
       id="guide3916"
       orientation="1,0"
       position="-13.262515,-528.07216" />
    <sodipodi:guide
       inkscape:locked="false"
       id="guide3918"
       orientation="0,1"
       position="75.666054,502.82066" />
    <sodipodi:guide
       inkscape:locked="false"
       id="guide3920"
       orientation="1,0"
       position="551.04338,542.79506" />
    <sodipodi:guide
       inkscape:locked="false"
       id="guide3922"
       orientation="0,1"
       position="619.51277,425.23856" />
    <sodipodi:guide
       inkscape:locked="false"
       id="guide3924"
       orientation="0,1"
       position="-27.191084,-467.8936" />
    <sodipodi:guide
       position="-91.075015,504.60636"
       orientation="1,0"
       id="guide844"
       inkscape:locked="false" />
    <sodipodi:guide
       position="-16.030375,-546.10787"
       orientation="0,1"
       id="guide846"
       inkscape:locked="false" />
    <sodipodi:guide
       position="629.05888,425.67776"
       orientation="1,0"
       id="guide848"
       inkscape:locked="false" />
  </sodipodi:namedview>
  <defs
     id="defs4" />
  <metadata
     id="metadata7">
    <rdf:RDF>
      <cc:Work
         rdf:about="">
        <dc:format>image/svg+xml</dc:format>
        <dc:type
           rdf:resource="http://purl.org/dc/dcmitype/StillImage" />
        <cc:license
           rdf:resource="http://creativecommons.org/publicdomain/zero/1.0/" />
      </cc:Work>
      <cc:License
         rdf:about="http://creativecommons.org/publicdomain/zero/1.0/">
        <cc:permits
           rdf:resource="http://creativecommons.org/ns#Reproduction" />
        <cc:permits
           rdf:resource="http://creativecommons.org/ns#Distribution" />
        <cc:permits
           rdf:resource="http://creativecommons.org/ns#DerivativeWorks" />
      </cc:License>
    </rdf:RDF>
  </metadata>
  <g
     style="display:inline"
     inkscape:label="Print"
     id="layer2"
     inkscape:groupmode="layer"
     transform="translate(-127.90539,-244.99567)" />
  <g
     style="display:inline"
     inkscape:label="Cut"
     id="layer3"
     inkscape:groupmode="layer"
     transform="translate(-127.90539,-244.99567)">
    <g
       aria-label="٭"
       transform="matrix(1.0054852,0,0,0.99454473,60.609154,-19.192899)"
       id="text1912"
       style="font-size:254.79px;line-height:1.25;fill:#fffeb0;fill-opacity:1;stroke-width:0.999999">
      <path
         d="m 200.94179,309.1809 q 0,-2.23936 -1.3685,-3.60787 -1.3685,-1.3685 -3.60786,-1.3685 -2.11496,0 -3.48346,1.3685 -1.3685,1.36851 -1.3685,3.60787 0,1.99055 1.3685,3.48346 1.3685,1.49291 3.48346,1.49291 2.11495,0 3.48345,-1.3685 1.49291,-1.49291 1.49291,-3.60787 z"
         id="path4005"
         style="fill:#fffeb0;fill-opacity:1" />
      <path
         d="m 238.88659,309.1809 q 0,3.60787 -2.737,5.84723 -2.737,2.23937 -6.8425,2.23937 -6.59369,0 -15.79997,-3.11023 l -9.20628,-3.23464 -1.24409,3.73227 14.68028,7.21574 q 10.69919,5.84723 10.69919,12.56532 0,3.48346 -2.36377,5.97164 -2.23937,2.36378 -5.72282,2.36378 -6.46928,0 -19.65665,-25.7527 -1.11969,0.74645 -2.6126,1.11968 2.73701,8.45983 3.85669,12.68974 2.11495,7.46455 2.11495,12.93855 0,3.73228 -2.11495,6.22046 -1.99055,2.48818 -5.97164,2.48818 -3.85669,0 -5.97164,-2.36377 -1.99055,-2.48818 -1.99055,-6.34487 0,-5.59841 2.23937,-12.44092 2.23936,-6.8425 4.47873,-13.18737 l -3.35905,-1.11968 q -4.22991,7.96219 -8.33542,15.79996 -5.72282,9.95274 -11.69446,9.95274 -3.48346,0 -5.72282,-2.36378 -2.23937,-2.36377 -2.23937,-5.97164 0,-6.71809 10.69919,-12.44091 0.99528,-0.49764 15.05351,-7.34015 -0.99527,-1.99054 -1.3685,-3.73227 -8.33541,2.86141 -12.44092,4.1055 -7.34014,2.23937 -12.68973,2.23937 -4.1055,0 -6.84251,-2.11496 -2.61259,-2.23936 -2.61259,-5.97164 0,-3.85668 2.61259,-6.09605 2.6126,-2.23936 6.84251,-2.23936 5.474,0 12.06769,2.36377 6.71809,2.23937 13.06296,4.47873 0.37323,-1.99055 1.3685,-4.22991 -7.58896,-3.48346 -15.05351,-7.09132 -10.69919,-5.59842 -10.69919,-12.31651 0,-3.60787 2.23937,-6.09605 2.23936,-2.48819 5.72282,-2.48819 5.84723,0 11.57005,9.95274 4.97637,9.4551 8.45983,15.92437 l 3.11023,-0.99527 q -0.24882,-1.11968 -3.11023,-9.4551 -3.35905,-10.07714 -3.35905,-16.17319 0,-3.73228 1.99055,-6.34487 2.11495,-2.737 5.97164,-2.737 3.98109,0 5.97164,2.61259 2.11495,2.61259 2.11495,6.46928 0,5.59841 -2.36377,12.44092 -2.23937,6.71809 -4.35432,12.93855 l 3.35905,1.24409 q 7.83777,-15.17792 8.211,-15.79996 5.72282,-10.07715 11.44565,-10.07715 3.60786,0 5.84723,2.48819 2.23936,2.48818 2.23936,6.09605 0,6.59368 -10.57478,12.1921 -9.08187,4.47873 -14.80469,7.21573 l 1.24409,4.22991 q 8.0866,-2.98582 12.1921,-4.35432 7.46455,-2.48818 12.81415,-2.48818 4.35432,0 6.96691,2.23936 2.61259,2.11496 2.61259,6.09605 z"
         id="path3766"
         style="fill:#fffeb0;fill-opacity:1" />
    </g>
    <g
       aria-label="❤︎"
       id="text5892"
       style="font-size:40px;line-height:1.25;fill:#fffeb0;fill-opacity:1;stroke-width:0.417618"
       transform="matrix(2.3531346,0,0,2.4366614,-264.81243,-590.28791)">
      <path
         d="m 184.8783,397.08441 q 2.05078,-5.99609 8.125,-5.99609 3.59375,0 6.13281,1.83594 2.53906,1.8164 2.53906,4.49218 0,2.16797 -1.09375,4.08203 -1.07422,1.91407 -4.25781,4.92188 -3.73047,3.4375 -5.09766,4.88281 -1.36719,1.44531 -2.91015,3.65235 -1.52344,2.1875 -1.99219,3.0664 -0.41016,0.78125 -0.72266,0.9961 -0.3125,0.19531 -0.72265,0.19531 -0.41016,0 -0.70313,-0.15625 -0.27344,-0.15625 -0.74219,-1.03516 -0.46875,-0.8789 -1.95312,-2.98828 -1.46485,-2.12891 -2.85156,-3.57422 -1.36719,-1.46484 -5.19532,-5.03906 -2.79297,-2.61719 -4.08203,-4.57031 -1.26953,-1.95313 -1.26953,-4.27735 0,-2.91015 2.53906,-4.6875 2.53907,-1.79687 6.09375,-1.79687 2.69532,0 4.78516,1.28906 2.10937,1.26953 3.37891,4.70703 z"
         id="path6018"
         style="fill:#fffeb0;fill-opacity:1;stroke-width:0.417618" />
    </g>
    <g
       aria-label="٭"
       transform="matrix(0.95043784,0.32812863,-0.32455834,0.94009633,302.4159,-25.526443)"
       id="text1912-7"
       style="font-size:254.79px;line-height:1.25;display:inline;fill:#fffeb0;fill-opacity:1;stroke-width:0.999999">
      <path
         d="m 200.94179,309.1809 q 0,-2.23936 -1.3685,-3.60787 -1.3685,-1.3685 -3.60786,-1.3685 -2.11496,0 -3.48346,1.3685 -1.3685,1.36851 -1.3685,3.60787 0,1.99055 1.3685,3.48346 1.3685,1.49291 3.48346,1.49291 2.11495,0 3.48345,-1.3685 1.49291,-1.49291 1.49291,-3.60787 z"
         id="path4005-5"
         style="fill:#fffeb0;fill-opacity:1" />
      <path
         d="m 238.88659,309.1809 q 0,3.60787 -2.737,5.84723 -2.737,2.23937 -6.8425,2.23937 -6.59369,0 -15.79997,-3.11023 l -9.20628,-3.23464 -1.24409,3.73227 14.68028,7.21574 q 10.69919,5.84723 10.69919,12.56532 0,3.48346 -2.36377,5.97164 -2.23937,2.36378 -5.72282,2.36378 -6.46928,0 -19.65665,-25.7527 -1.11969,0.74645 -2.6126,1.11968 2.73701,8.45983 3.85669,12.68974 2.11495,7.46455 2.11495,12.93855 0,3.73228 -2.11495,6.22046 -1.99055,2.48818 -5.97164,2.48818 -3.85669,0 -5.97164,-2.36377 -1.99055,-2.48818 -1.99055,-6.34487 0,-5.59841 2.23937,-12.44092 2.23936,-6.8425 4.47873,-13.18737 l -3.35905,-1.11968 q -4.22991,7.96219 -8.33542,15.79996 -5.72282,9.95274 -11.69446,9.95274 -3.48346,0 -5.72282,-2.36378 -2.23937,-2.36377 -2.23937,-5.97164 0,-6.71809 10.69919,-12.44091 0.99528,-0.49764 15.05351,-7.34015 -0.99527,-1.99054 -1.3685,-3.73227 -8.33541,2.86141 -12.44092,4.1055 -7.34014,2.23937 -12.68973,2.23937 -4.1055,0 -6.84251,-2.11496 -2.61259,-2.23936 -2.61259,-5.97164 0,-3.85668 2.61259,-6.09605 2.6126,-2.23936 6.84251,-2.23936 5.474,0 12.06769,2.36377 6.71809,2.23937 13.06296,4.47873 0.37323,-1.99055 1.3685,-4.22991 -7.58896,-3.48346 -15.05351,-7.09132 -10.69919,-5.59842 -10.69919,-12.31651 0,-3.60787 2.23937,-6.09605 2.23936,-2.48819 5.72282,-2.48819 5.84723,0 11.57005,9.95274 4.97637,9.4551 8.45983,15.92437 l 3.11023,-0.99527 q -0.24882,-1.11968 -3.11023,-9.4551 -3.35905,-10.07714 -3.35905,-16.17319 0,-3.73228 1.99055,-6.34487 2.11495,-2.737 5.97164,-2.737 3.98109,0 5.97164,2.61259 2.11495,2.61259 2.11495,6.46928 0,5.59841 -2.36377,12.44092 -2.23937,6.71809 -4.35432,12.93855 l 3.35905,1.24409 q 7.83777,-15.17792 8.211,-15.79996 5.72282,-10.07715 11.44565,-10.07715 3.60786,0 5.84723,2.48819 2.23936,2.48818 2.23936,6.09605 0,6.59368 -10.57478,12.1921 -9.08187,4.47873 -14.80469,7.21573 l 1.24409,4.22991 q 8.0866,-2.98582 12.1921,-4.35432 7.46455,-2.48818 12.81415,-2.48818 4.35432,0 6.96691,2.23936 2.61259,2.11496 2.61259,6.09605 z"
         id="path3766-6"
         style="fill:#fffeb0;fill-opacity:1" />
    </g>
    <g
       aria-label="٭"
       transform="matrix(0.58922895,-0.81474519,0.80588012,0.58281768,-193.50264,476.08181)"
       id="text1912-7-9"
       style="font-size:254.79px;line-height:1.25;display:inline;fill:#fffeb0;fill-opacity:1;stroke-width:0.999999">
      <path
         d="m 200.94179,309.1809 q 0,-2.23936 -1.3685,-3.60787 -1.3685,-1.3685 -3.60786,-1.3685 -2.11496,0 -3.48346,1.3685 -1.3685,1.36851 -1.3685,3.60787 0,1.99055 1.3685,3.48346 1.3685,1.49291 3.48346,1.49291 2.11495,0 3.48345,-1.3685 1.49291,-1.49291 1.49291,-3.60787 z"
         id="path4005-5-7"
         style="fill:#fffeb0;fill-opacity:1" />
      <path
         d="m 238.88659,309.1809 q 0,3.60787 -2.737,5.84723 -2.737,2.23937 -6.8425,2.23937 -6.59369,0 -15.79997,-3.11023 l -9.20628,-3.23464 -1.24409,3.73227 14.68028,7.21574 q 10.69919,5.84723 10.69919,12.56532 0,3.48346 -2.36377,5.97164 -2.23937,2.36378 -5.72282,2.36378 -6.46928,0 -19.65665,-25.7527 -1.11969,0.74645 -2.6126,1.11968 2.73701,8.45983 3.85669,12.68974 2.11495,7.46455 2.11495,12.93855 0,3.73228 -2.11495,6.22046 -1.99055,2.48818 -5.97164,2.48818 -3.85669,0 -5.97164,-2.36377 -1.99055,-2.48818 -1.99055,-6.34487 0,-5.59841 2.23937,-12.44092 2.23936,-6.8425 4.47873,-13.18737 l -3.35905,-1.11968 q -4.22991,7.96219 -8.33542,15.79996 -5.72282,9.95274 -11.69446,9.95274 -3.48346,0 -5.72282,-2.36378 -2.23937,-2.36377 -2.23937,-5.97164 0,-6.71809 10.69919,-12.44091 0.99528,-0.49764 15.05351,-7.34015 -0.99527,-1.99054 -1.3685,-3.73227 -8.33541,2.86141 -12.44092,4.1055 -7.34014,2.23937 -12.68973,2.23937 -4.1055,0 -6.84251,-2.11496 -2.61259,-2.23936 -2.61259,-5.97164 0,-3.85668 2.61259,-6.09605 2.6126,-2.23936 6.84251,-2.23936 5.474,0 12.06769,2.36377 6.71809,2.23937 13.06296,4.47873 0.37323,-1.99055 1.3685,-4.22991 -7.58896,-3.48346 -15.05351,-7.09132 -10.69919,-5.59842 -10.69919,-12.31651 0,-3.60787 2.23937,-6.09605 2.23936,-2.48819 5.72282,-2.48819 5.84723,0 11.57005,9.95274 4.97637,9.4551 8.45983,15.92437 l 3.11023,-0.99527 q -0.24882,-1.11968 -3.11023,-9.4551 -3.35905,-10.07714 -3.35905,-16.17319 0,-3.73228 1.99055,-6.34487 2.11495,-2.737 5.97164,-2.737 3.98109,0 5.97164,2.61259 2.11495,2.61259 2.11495,6.46928 0,5.59841 -2.36377,12.44092 -2.23937,6.71809 -4.35432,12.93855 l 3.35905,1.24409 q 7.83777,-15.17792 8.211,-15.79996 5.72282,-10.07715 11.44565,-10.07715 3.60786,0 5.84723,2.48819 2.23936,2.48818 2.23936,6.09605 0,6.59368 -10.57478,12.1921 -9.08187,4.47873 -14.80469,7.21573 l 1.24409,4.22991 q 8.0866,-2.98582 12.1921,-4.35432 7.46455,-2.48818 12.81415,-2.48818 4.35432,0 6.96691,2.23936 2.61259,2.11496 2.61259,6.09605 z"
         id="path3766-6-3"
         style="fill:#fffeb0;fill-opacity:1" />
    </g>
    <g
       aria-label="❤︎"
       id="text5892-5"
       style="font-size:40px;line-height:1.25;display:inline;fill:#fffeb0;fill-opacity:1;stroke-width:0.417618"
       transform="matrix(2.2243074,0.76791866,-0.79517668,2.3032613,214.03355,-621.24876)">
      <path
         d="m 184.8783,397.08441 q 2.05078,-5.99609 8.125,-5.99609 3.59375,0 6.13281,1.83594 2.53906,1.8164 2.53906,4.49218 0,2.16797 -1.09375,4.08203 -1.07422,1.91407 -4.25781,4.92188 -3.73047,3.4375 -5.09766,4.88281 -1.36719,1.44531 -2.91015,3.65235 -1.52344,2.1875 -1.99219,3.0664 -0.41016,0.78125 -0.72266,0.9961 -0.3125,0.19531 -0.72265,0.19531 -0.41016,0 -0.70313,-0.15625 -0.27344,-0.15625 -0.74219,-1.03516 -0.46875,-0.8789 -1.95312,-2.98828 -1.46485,-2.12891 -2.85156,-3.57422 -1.36719,-1.46484 -5.19532,-5.03906 -2.79297,-2.61719 -4.08203,-4.57031 -1.26953,-1.95313 -1.26953,-4.27735 0,-2.91015 2.53906,-4.6875 2.53907,-1.79687 6.09375,-1.79687 2.69532,0 4.78516,1.28906 2.10937,1.26953 3.37891,4.70703 z"
         id="path6018-3"
         style="fill:#fffeb0;fill-opacity:1;stroke-width:0.417618" />
    </g>
  </g>
</svg>
